<?xml version="1.0" encoding="UTF-8"?>
<svg width="413px" height="126px" viewBox="0 0 413 126" version="1.1" xmlns="http://www.w3.org/2000/svg" xmlns:xlink="http://www.w3.org/1999/xlink">
    <!-- Generator: Sketch 51.2 (57519) - http://www.bohemiancoding.com/sketch -->
    <title>Logo / Blue Side</title>
    <desc>Created with Sketch.</desc>
    <defs></defs>
    <g id="Logo-/-Blue-Side" stroke="none" stroke-width="1" fill="none" fill-rule="evenodd">
        <g id="Group-8-Copy-2" transform="translate(2.000000, 3.000000)">
            <path d="M126.682,19.407 C127.305,18.783 128.166,18.397 129.116,18.397 C131.017,18.397 132.558,19.941 132.558,21.847 C132.558,23.751 131.017,25.296 129.116,25.296 C127.216,25.296 125.675,23.752 125.675,21.847 C125.675,20.894 126.06,20.03 126.682,19.407" id="Shape" stroke="#000000" stroke-width="2.9148"></path>
            <ellipse id="Oval" stroke="#000000" stroke-width="2.9148" cx="131.226" cy="75.608" rx="3.442" ry="3.45"></ellipse>
            <ellipse id="Oval" stroke="#000000" stroke-width="2.9148" cx="90.102" cy="117.224" rx="3.441" ry="3.45"></ellipse>
            <path d="M90.102,113.774 C88.572,95.695 68.151,91.166 46.2,91.166" id="Shape" stroke="#000000" stroke-width="4.8581"></path>
            <path d="M126.824,19.275 C112.336,6.1 87.836,2.806 66.778,3.464" id="Shape" stroke="#000000" stroke-width="4.8581"></path>
            <path d="M132.816,72.549 C140.843,57.784 141.176,38.87 131.212,24.572" id="Shape" stroke="#000000" stroke-width="4.8581"></path>
            <path d="M106.021,94.323 C115.682,91.632 123.529,85.802 129.117,78.329" id="Shape" stroke="#000000" stroke-width="4.8581"></path>
            <path d="M9.298,74.028 C17.176,83.709 30.215,90.589 47.751,91.166" id="Shape" stroke="#000000" stroke-width="4.8581"></path>
            <path d="M3.055,36.188 C-0.832,46.404 -0.131,57.471 4.706,66.982" id="Shape" stroke="#000000" stroke-width="4.8581"></path>
            <path d="M14.645,19.644 C11.534,22.426 8.954,25.455 6.89,28.643" id="Shape" stroke="#000000" stroke-width="4.8581"></path>
            <path d="M59.967,3.464 C43.625,4.41 30.859,8.544 21.419,14.54" id="Shape" stroke="#000000" stroke-width="4.8581"></path>
            <ellipse id="Oval" stroke="#000000" stroke-width="2.9148" cx="103.133" cy="95.695" rx="3.441" ry="3.448"></ellipse>
            <ellipse id="Oval" stroke="#000000" stroke-width="1.2631" cx="73.273" cy="61.035" rx="3.442" ry="3.45"></ellipse>
            <ellipse id="Oval" stroke="#000000" stroke-width="1.2631" cx="36.618" cy="42.804" rx="3.441" ry="3.449"></ellipse>
            <ellipse id="Oval" stroke="#000000" stroke-width="1.2631" cx="88.596" cy="41.043" rx="3.442" ry="3.451"></ellipse>
            <ellipse id="Oval" stroke="#000000" stroke-width="2.9148" cx="63.336" cy="3.464" rx="3.442" ry="3.449"></ellipse>
            <ellipse id="Oval" fill="#000000" fill-rule="nonzero" cx="117.568" cy="65.967" rx="3.442" ry="3.45"></ellipse>
            <ellipse id="Oval" fill="#000000" fill-rule="nonzero" cx="110.443" cy="25.295" rx="3.442" ry="3.449"></ellipse>
            <ellipse id="Oval" fill="#000000" fill-rule="nonzero" cx="65.517" cy="35.664" rx="3.442" ry="3.45"></ellipse>
            <path d="M63.336,6.913 L65.518,36.685" id="Shape" stroke="#000000" stroke-width="1.2631"></path>
            <path d="M65.518,36.685 L40.059,42.208" id="Shape" stroke="#000000" stroke-width="1.2631"></path>
            <path d="M66.781,35.664 L85.154,40.33" id="Shape" stroke="#000000" stroke-width="1.2631"></path>
            <path d="M92.038,39.57 L109.648,25.94" id="Shape" stroke="#000000" stroke-width="1.2631"></path>
            <path d="M109.648,25.94 L117.568,65.967" id="Shape" stroke="#000000" stroke-width="1.2631"></path>
            <path d="M111.675,25.94 L126.015,24.573" id="Shape" stroke="#000000" stroke-width="1.2631"></path>
            <path d="M91.552,43.895 L115.503,65.967" id="Shape" stroke="#000000" stroke-width="1.2631"></path>
            <path d="M115.503,65.967 L104.589,92.572" id="Shape" stroke="#000000" stroke-width="1.2631"></path>
            <path d="M118.845,65.967 L128.519,72.667" id="Shape" stroke="#000000" stroke-width="1.2631"></path>
            <path d="M75.838,58.74 L86.66,43.895" id="Shape" stroke="#000000" stroke-width="1.2631"></path>
            <path d="M87.623,38.581 L63.994,6.1" id="Shape" stroke="#000000" stroke-width="1.2631"></path>
            <path d="M66.778,6.1 L110.443,24.573" id="Shape" stroke="#000000" stroke-width="1.2631"></path>
            <path d="M88.596,44.494 L100.521,93.453" id="Shape" stroke="#000000" stroke-width="1.2631"></path>
            <path d="M76.715,62.517 L99.691,94.323" id="Shape" stroke="#000000" stroke-width="1.2631"></path>
            <path d="M74.833,64.485 L92.836,113.774" id="Shape" stroke="#000000" stroke-width="1.2631"></path>
            <path d="M70.325,59.261 L65.808,35.664" id="Shape" stroke="#000000" stroke-width="1.2631"></path>
            <path d="M39.616,44.494 L69.832,61.035" id="Shape" stroke="#000000" stroke-width="1.2631"></path>
            <path d="M37.806,39.57 L61.119,6.1" id="Shape" stroke="#000000" stroke-width="1.2631"></path>
            <path d="M127.784,24.573 L118.845,64.485" id="Shape" stroke="#000000" stroke-width="1.2631"></path>
            <path d="M34.222,40.33 L19.643,19.642" id="Shape" stroke="#000000" stroke-width="1.2631"></path>
            <ellipse id="Oval" stroke="#000000" stroke-width="2.9148" cx="17.833" cy="16.907" rx="3.442" ry="3.449"></ellipse>
            <path d="M8.272,33.5 L33.176,42.804" id="Shape" stroke="#000000" stroke-width="1.2631"></path>
            <path d="M34.222,44.494 L9.298,68.305" id="Shape" stroke="#000000" stroke-width="1.2631"></path>
            <ellipse id="Oval" stroke="#000000" stroke-width="2.9148" cx="4.831" cy="32.215" rx="3.442" ry="3.449"></ellipse>
            <ellipse id="Oval" stroke="#000000" stroke-width="2.9148" cx="6.837" cy="70.657" rx="3.442" ry="3.449"></ellipse>
        </g>
        <path d="M161.3486,32.6162125 C161.3486,31.7182653 161.671637,30.9462613 162.317721,30.3001773 C162.963805,29.6540934 163.735809,29.3310563 164.633756,29.3310563 C165.531703,29.3310563 166.303707,29.6540934 166.949791,30.3001773 C167.595875,30.9462613 167.918913,31.7182653 167.918913,32.6162125 L167.918913,62.1826188 C167.918913,64.8983615 168.882549,67.2198487 170.80985,69.14715 C172.737151,71.0744513 175.058639,72.0380875 177.774381,72.0380875 C180.490124,72.0380875 182.811611,71.0744513 184.738913,69.14715 C186.666214,67.2198487 187.62985,64.8983615 187.62985,62.1826188 L187.62985,32.6162125 C187.62985,31.7182653 187.952887,30.9462613 188.598971,30.3001773 C189.245055,29.6540934 190.017059,29.3310563 190.915006,29.3310563 C191.812953,29.3310563 192.584957,29.6540934 193.231041,30.3001773 C193.877125,30.9462613 194.200163,31.7182653 194.200163,32.6162125 L194.200163,62.1826188 C194.200163,66.716157 192.595927,70.5871274 189.387409,73.7956461 C186.17889,77.0041647 182.30792,78.6084 177.774381,78.6084 C173.240843,78.6084 169.369873,77.0041647 166.161354,73.7956461 C162.952835,70.5871274 161.3486,66.716157 161.3486,62.1826188 L161.3486,32.6162125 Z M220.481413,35.9013688 L220.481413,75.3232438 C220.481413,76.2211909 220.158375,76.9931949 219.512291,77.6392789 C218.866207,78.2853629 218.094203,78.6084 217.196256,78.6084 C216.298309,78.6084 215.526305,78.2853629 214.880221,77.6392789 C214.234137,76.9931949 213.9111,76.2211909 213.9111,75.3232438 L213.9111,35.9013688 L204.055631,35.9013688 C203.157684,35.9013688 202.38568,35.5783316 201.739596,34.9322477 C201.093512,34.2861637 200.770475,33.5141597 200.770475,32.6162125 C200.770475,31.7182653 201.093512,30.9462613 201.739596,30.3001773 C202.38568,29.6540934 203.157684,29.3310563 204.055631,29.3310563 L230.336881,29.3310563 C231.234828,29.3310563 232.006832,29.6540934 232.652916,30.3001773 C233.299,30.9462613 233.622038,31.7182653 233.622038,32.6162125 C233.622038,33.5141597 233.299,34.2861637 232.652916,34.9322477 C232.006832,35.5783316 231.234828,35.9013688 230.336881,35.9013688 L220.481413,35.9013688 Z M273.043913,32.6162125 L273.043913,75.3232438 C273.043913,76.2211909 272.720875,76.9931949 272.074791,77.6392789 C271.428707,78.2853629 270.656703,78.6084 269.758756,78.6084 C268.860809,78.6084 268.088805,78.2853629 267.442721,77.6392789 C266.796637,76.9931949 266.4736,76.2211909 266.4736,75.3232438 L266.4736,54.5282047 L259.903288,75.980275 L259.837584,75.980275 C259.728079,76.5935072 259.432418,77.1410278 258.950592,77.6228531 C258.293558,78.2798877 257.516078,78.6084 256.618131,78.6084 C255.720184,78.6084 254.953655,78.2798877 254.318522,77.6228531 C253.814795,77.1410278 253.508184,76.5935072 253.398678,75.980275 L253.332975,75.980275 L246.762663,54.5282047 L246.762663,75.3232438 C246.762663,76.2211909 246.439625,76.9931949 245.793541,77.6392789 C245.147457,78.2853629 244.375453,78.6084 243.477506,78.6084 C242.579559,78.6084 241.807555,78.2853629 241.161471,77.6392789 C240.515387,76.9931949 240.19235,76.2211909 240.19235,75.3232438 L240.19235,32.6162125 C240.19235,31.7182653 240.520862,30.9407861 241.177897,30.2837516 C241.81303,29.6486182 242.579559,29.3310563 243.477506,29.3310563 C244.375453,29.3310563 245.152933,29.6486182 245.809967,30.2837516 C246.379397,30.8750826 246.806463,31.8715701 247.091178,33.2732438 L256.618131,64.5479313 L266.145084,33.2732438 C266.714514,31.7839655 267.207283,30.787478 267.623405,30.2837516 C268.149032,29.6486182 268.860809,29.3310563 269.758756,29.3310563 C270.656703,29.3310563 271.428707,29.6540934 272.074791,30.3001773 C272.720875,30.9462613 273.043913,31.7182653 273.043913,32.6162125 Z M292.75485,72.0380875 L292.75485,35.9013688 L282.899381,35.9013688 C282.001434,35.9013688 281.22943,35.5783316 280.583346,34.9322477 C279.937262,34.2861637 279.614225,33.5141597 279.614225,32.6162125 C279.614225,31.7182653 279.937262,30.9462613 280.583346,30.3001773 C281.22943,29.6540934 282.001434,29.3310563 282.899381,29.3310563 L309.180631,29.3310563 C310.078578,29.3310563 310.850582,29.6540934 311.496666,30.3001773 C312.14275,30.9462613 312.465788,31.7182653 312.465788,32.6162125 C312.465788,33.5141597 312.14275,34.2861637 311.496666,34.9322477 C310.850582,35.5783316 310.078578,35.9013688 309.180631,35.9013688 L299.325163,35.9013688 L299.325163,72.0380875 L309.180631,72.0380875 C310.078578,72.0380875 310.850582,72.3611246 311.496666,73.0072086 C312.14275,73.6532926 312.465788,74.4252966 312.465788,75.3232438 C312.465788,76.2211909 312.14275,76.9931949 311.496666,77.6392789 C310.850582,78.2853629 310.078578,78.6084 309.180631,78.6084 L282.899381,78.6084 C282.001434,78.6084 281.22943,78.2853629 280.583346,77.6392789 C279.937262,76.9931949 279.614225,76.2211909 279.614225,75.3232438 C279.614225,74.4252966 279.937262,73.6532926 280.583346,73.0072086 C281.22943,72.3611246 282.001434,72.0380875 282.899381,72.0380875 L292.75485,72.0380875 Z M351.887663,43.2929703 C351.887663,44.1909175 351.564625,44.9629215 350.918541,45.6090055 C350.272457,46.2550894 349.500453,46.5781266 348.602506,46.5781266 C347.704559,46.5781266 346.932555,46.2550894 346.286471,45.6090055 C345.640387,44.9629215 345.31735,44.1909175 345.31735,43.2929703 C345.31735,41.2561633 344.594623,39.5150479 343.149147,38.0695719 C341.703671,36.6240959 339.962555,35.9013688 337.925748,35.9013688 L332.998014,35.9013688 C330.961207,35.9013688 329.220092,36.6240959 327.774616,38.0695719 C326.32914,39.5150479 325.606413,41.2561633 325.606413,43.2929703 C325.606413,45.3297774 326.32914,47.0708928 327.774616,48.5163688 C329.220092,49.9618447 330.961207,50.6845719 332.998014,50.6845719 L337.925748,50.6845719 C341.780351,50.6845719 345.07095,52.0478981 347.797643,54.7745914 C350.524336,57.5012847 351.887663,60.7918833 351.887663,64.6464859 C351.887663,68.5010885 350.524336,71.7916871 347.797643,74.5183805 C345.07095,77.2450738 341.780351,78.6084 337.925748,78.6084 L332.998014,78.6084 C329.143411,78.6084 325.852813,77.2450738 323.12612,74.5183805 C320.399426,71.7916871 319.0361,68.5010885 319.0361,64.6464859 C319.0361,63.7485387 319.359137,62.9765347 320.005221,62.3304508 C320.651305,61.6843668 321.423309,61.3613297 322.321256,61.3613297 C323.219203,61.3613297 323.991207,61.6843668 324.637291,62.3304508 C325.283375,62.9765347 325.606413,63.7485387 325.606413,64.6464859 C325.606413,66.683293 326.32914,68.4244084 327.774616,69.8698844 C329.220092,71.3153604 330.961207,72.0380875 332.998014,72.0380875 L337.925748,72.0380875 C339.962555,72.0380875 341.703671,71.3153604 343.149147,69.8698844 C344.594623,68.4244084 345.31735,66.683293 345.31735,64.6464859 C345.31735,62.6096789 344.594623,60.8685635 343.149147,59.4230875 C341.703671,57.9776115 339.962555,57.2548844 337.925748,57.2548844 L332.998014,57.2548844 C329.143411,57.2548844 325.852813,55.8915582 323.12612,53.1648648 C320.399426,50.4381715 319.0361,47.1475729 319.0361,43.2929703 C319.0361,39.4383677 320.399426,36.1477691 323.12612,33.4210758 C325.852813,30.6943825 329.143411,29.3310563 332.998014,29.3310563 L337.925748,29.3310563 C341.780351,29.3310563 345.07095,30.6943825 347.797643,33.4210758 C350.524336,36.1477691 351.887663,39.4383677 351.887663,43.2929703 Z M378.168913,35.9013688 L378.168913,75.3232438 C378.168913,76.2211909 377.845875,76.9931949 377.199791,77.6392789 C376.553707,78.2853629 375.781703,78.6084 374.883756,78.6084 C373.985809,78.6084 373.213805,78.2853629 372.567721,77.6392789 C371.921637,76.9931949 371.5986,76.2211909 371.5986,75.3232438 L371.5986,35.9013688 L361.743131,35.9013688 C360.845184,35.9013688 360.07318,35.5783316 359.427096,34.9322477 C358.781012,34.2861637 358.457975,33.5141597 358.457975,32.6162125 C358.457975,31.7182653 358.781012,30.9462613 359.427096,30.3001773 C360.07318,29.6540934 360.845184,29.3310563 361.743131,29.3310563 L388.024381,29.3310563 C388.922328,29.3310563 389.694332,29.6540934 390.340416,30.3001773 C390.9865,30.9462613 391.309538,31.7182653 391.309538,32.6162125 C391.309538,33.5141597 390.9865,34.2861637 390.340416,34.9322477 C389.694332,35.5783316 388.922328,35.9013688 388.024381,35.9013688 L378.168913,35.9013688 Z" id="UTMIST" fill="#000000"></path>
    </g>
</svg>