<?xml version="1.0" encoding="UTF-8"?>
<svg width="413px" height="126px" viewBox="0 0 413 126" version="1.1" xmlns="http://www.w3.org/2000/svg" xmlns:xlink="http://www.w3.org/1999/xlink">
    <!-- Generator: Sketch 51.2 (57519) - http://www.bohemiancoding.com/sketch -->
    <title>Logo / White Side</title>
    <desc>Created with Sketch.</desc>
    <defs></defs>
    <g id="Logo-/-White-Side" stroke="none" stroke-width="1" fill="none" fill-rule="evenodd">
        <g id="Group" transform="translate(2.000000, 3.000000)">
            <path d="M126.682,19.407 C127.305,18.783 128.166,18.397 129.116,18.397 C131.017,18.397 132.558,19.941 132.558,21.847 C132.558,23.751 131.017,25.296 129.116,25.296 C127.216,25.296 125.675,23.752 125.675,21.847 C125.675,20.894 126.06,20.03 126.682,19.407" id="Shape" stroke="#FFFFFF" stroke-width="2.9148"></path>
            <ellipse id="Oval" stroke="#FFFFFF" stroke-width="2.9148" cx="131.226" cy="75.608" rx="3.442" ry="3.45"></ellipse>
            <ellipse id="Oval" stroke="#FFFFFF" stroke-width="2.9148" cx="90.102" cy="117.224" rx="3.441" ry="3.45"></ellipse>
            <path d="M90.102,113.774 C88.572,95.695 68.151,91.166 46.2,91.166" id="Shape" stroke="#FFFFFF" stroke-width="4.8581"></path>
            <path d="M126.824,19.275 C112.336,6.1 87.836,2.806 66.778,3.464" id="Shape" stroke="#FFFFFF" stroke-width="4.8581"></path>
            <path d="M132.816,72.549 C140.843,57.784 141.176,38.87 131.212,24.572" id="Shape" stroke="#FFFFFF" stroke-width="4.8581"></path>
            <path d="M106.021,94.323 C115.682,91.632 123.529,85.802 129.117,78.329" id="Shape" stroke="#FFFFFF" stroke-width="4.8581"></path>
            <path d="M9.298,74.028 C17.176,83.709 30.215,90.589 47.751,91.166" id="Shape" stroke="#FFFFFF" stroke-width="4.8581"></path>
            <path d="M3.055,36.188 C-0.832,46.404 -0.131,57.471 4.706,66.982" id="Shape" stroke="#FFFFFF" stroke-width="4.8581"></path>
            <path d="M14.645,19.644 C11.534,22.426 8.954,25.455 6.89,28.643" id="Shape" stroke="#FFFFFF" stroke-width="4.8581"></path>
            <path d="M59.967,3.464 C43.625,4.41 30.859,8.544 21.419,14.54" id="Shape" stroke="#FFFFFF" stroke-width="4.8581"></path>
            <ellipse id="Oval" stroke="#FFFFFF" stroke-width="2.9148" cx="103.133" cy="95.695" rx="3.441" ry="3.448"></ellipse>
            <ellipse id="Oval" stroke="#FFFFFF" stroke-width="1.2631" cx="73.273" cy="61.035" rx="3.442" ry="3.45"></ellipse>
            <ellipse id="Oval" stroke="#FFFFFF" stroke-width="1.2631" cx="36.618" cy="42.804" rx="3.441" ry="3.449"></ellipse>
            <ellipse id="Oval" stroke="#FFFFFF" stroke-width="1.2631" cx="88.596" cy="41.043" rx="3.442" ry="3.451"></ellipse>
            <ellipse id="Oval" stroke="#FFFFFF" stroke-width="2.9148" cx="63.336" cy="3.464" rx="3.442" ry="3.449"></ellipse>
            <ellipse id="Oval" fill="#FFFFFF" fill-rule="nonzero" cx="117.568" cy="65.967" rx="3.442" ry="3.45"></ellipse>
            <ellipse id="Oval" fill="#FFFFFF" fill-rule="nonzero" cx="110.443" cy="25.295" rx="3.442" ry="3.449"></ellipse>
            <ellipse id="Oval" fill="#FFFFFF" fill-rule="nonzero" cx="65.517" cy="35.664" rx="3.442" ry="3.45"></ellipse>
            <path d="M63.336,6.913 L65.518,36.685" id="Shape" stroke="#FFFFFF" stroke-width="1.2631"></path>
            <path d="M65.518,36.685 L40.059,42.208" id="Shape" stroke="#FFFFFF" stroke-width="1.2631"></path>
            <path d="M66.781,35.664 L85.154,40.33" id="Shape" stroke="#FFFFFF" stroke-width="1.2631"></path>
            <path d="M92.038,39.57 L109.648,25.94" id="Shape" stroke="#FFFFFF" stroke-width="1.2631"></path>
            <path d="M109.648,25.94 L117.568,65.967" id="Shape" stroke="#FFFFFF" stroke-width="1.2631"></path>
            <path d="M111.675,25.94 L126.015,24.573" id="Shape" stroke="#FFFFFF" stroke-width="1.2631"></path>
            <path d="M91.552,43.895 L115.503,65.967" id="Shape" stroke="#FFFFFF" stroke-width="1.2631"></path>
            <path d="M115.503,65.967 L104.589,92.572" id="Shape" stroke="#FFFFFF" stroke-width="1.2631"></path>
            <path d="M118.845,65.967 L128.519,72.667" id="Shape" stroke="#FFFFFF" stroke-width="1.2631"></path>
            <path d="M75.838,58.74 L86.66,43.895" id="Shape" stroke="#FFFFFF" stroke-width="1.2631"></path>
            <path d="M87.623,38.581 L63.994,6.1" id="Shape" stroke="#FFFFFF" stroke-width="1.2631"></path>
            <path d="M66.778,6.1 L110.443,24.573" id="Shape" stroke="#FFFFFF" stroke-width="1.2631"></path>
            <path d="M88.596,44.494 L100.521,93.453" id="Shape" stroke="#FFFFFF" stroke-width="1.2631"></path>
            <path d="M76.715,62.517 L99.691,94.323" id="Shape" stroke="#FFFFFF" stroke-width="1.2631"></path>
            <path d="M74.833,64.485 L92.836,113.774" id="Shape" stroke="#FFFFFF" stroke-width="1.2631"></path>
            <path d="M70.325,59.261 L65.808,35.664" id="Shape" stroke="#FFFFFF" stroke-width="1.2631"></path>
            <path d="M39.616,44.494 L69.832,61.035" id="Shape" stroke="#FFFFFF" stroke-width="1.2631"></path>
            <path d="M37.806,39.57 L61.119,6.1" id="Shape" stroke="#FFFFFF" stroke-width="1.2631"></path>
            <path d="M127.784,24.573 L118.845,64.485" id="Shape" stroke="#FFFFFF" stroke-width="1.2631"></path>
            <path d="M34.222,40.33 L19.643,19.642" id="Shape" stroke="#FFFFFF" stroke-width="1.2631"></path>
            <ellipse id="Oval" stroke="#FFFFFF" stroke-width="2.9148" cx="17.833" cy="16.907" rx="3.442" ry="3.449"></ellipse>
            <path d="M8.272,33.5 L33.176,42.804" id="Shape" stroke="#FFFFFF" stroke-width="1.2631"></path>
            <path d="M34.222,44.494 L9.298,68.305" id="Shape" stroke="#FFFFFF" stroke-width="1.2631"></path>
            <ellipse id="Oval" stroke="#FFFFFF" stroke-width="2.9148" cx="4.831" cy="32.215" rx="3.442" ry="3.449"></ellipse>
            <ellipse id="Oval" stroke="#FFFFFF" stroke-width="2.9148" cx="6.837" cy="70.657" rx="3.442" ry="3.449"></ellipse>
        </g>
        <path d="M161,33.0078125 C161,32.1098653 161.323037,31.3378613 161.969121,30.6917773 C162.615205,30.0456934 163.387209,29.7226562 164.285156,29.7226562 C165.183103,29.7226562 165.955107,30.0456934 166.601191,30.6917773 C167.247275,31.3378613 167.570312,32.1098653 167.570312,33.0078125 L167.570312,62.5742188 C167.570312,65.2899615 168.533949,67.6114487 170.46125,69.53875 C172.388551,71.4660513 174.710039,72.4296875 177.425781,72.4296875 C180.141524,72.4296875 182.463011,71.4660513 184.390312,69.53875 C186.317614,67.6114487 187.28125,65.2899615 187.28125,62.5742188 L187.28125,33.0078125 C187.28125,32.1098653 187.604287,31.3378613 188.250371,30.6917773 C188.896455,30.0456934 189.668459,29.7226562 190.566406,29.7226562 C191.464353,29.7226562 192.236357,30.0456934 192.882441,30.6917773 C193.528525,31.3378613 193.851562,32.1098653 193.851562,33.0078125 L193.851562,62.5742188 C193.851562,67.107757 192.247327,70.9787274 189.038809,74.1872461 C185.83029,77.3957647 181.95932,79 177.425781,79 C172.892243,79 169.021273,77.3957647 165.812754,74.1872461 C162.604235,70.9787274 161,67.107757 161,62.5742188 L161,33.0078125 Z M220.132812,36.2929688 L220.132812,75.7148438 C220.132812,76.6127909 219.809775,77.3847949 219.163691,78.0308789 C218.517607,78.6769629 217.745603,79 216.847656,79 C215.949709,79 215.177705,78.6769629 214.531621,78.0308789 C213.885537,77.3847949 213.5625,76.6127909 213.5625,75.7148438 L213.5625,36.2929688 L203.707031,36.2929688 C202.809084,36.2929688 202.03708,35.9699316 201.390996,35.3238477 C200.744912,34.6777637 200.421875,33.9057597 200.421875,33.0078125 C200.421875,32.1098653 200.744912,31.3378613 201.390996,30.6917773 C202.03708,30.0456934 202.809084,29.7226562 203.707031,29.7226562 L229.988281,29.7226562 C230.886228,29.7226562 231.658232,30.0456934 232.304316,30.6917773 C232.9504,31.3378613 233.273438,32.1098653 233.273438,33.0078125 C233.273438,33.9057597 232.9504,34.6777637 232.304316,35.3238477 C231.658232,35.9699316 230.886228,36.2929688 229.988281,36.2929688 L220.132812,36.2929688 Z M272.695312,33.0078125 L272.695312,75.7148438 C272.695312,76.6127909 272.372275,77.3847949 271.726191,78.0308789 C271.080107,78.6769629 270.308103,79 269.410156,79 C268.512209,79 267.740205,78.6769629 267.094121,78.0308789 C266.448037,77.3847949 266.125,76.6127909 266.125,75.7148438 L266.125,54.9198047 L259.554688,76.371875 L259.488984,76.371875 C259.379479,76.9851072 259.083818,77.5326278 258.601992,78.0144531 C257.944958,78.6714877 257.167478,79 256.269531,79 C255.371584,79 254.605055,78.6714877 253.969922,78.0144531 C253.466195,77.5326278 253.159584,76.9851072 253.050078,76.371875 L252.984375,76.371875 L246.414062,54.9198047 L246.414062,75.7148438 C246.414062,76.6127909 246.091025,77.3847949 245.444941,78.0308789 C244.798857,78.6769629 244.026853,79 243.128906,79 C242.230959,79 241.458955,78.6769629 240.812871,78.0308789 C240.166787,77.3847949 239.84375,76.6127909 239.84375,75.7148438 L239.84375,33.0078125 C239.84375,32.1098653 240.172262,31.3323861 240.829297,30.6753516 C241.46443,30.0402182 242.230959,29.7226562 243.128906,29.7226562 C244.026853,29.7226562 244.804333,30.0402182 245.461367,30.6753516 C246.030797,31.2666826 246.457863,32.2631701 246.742578,33.6648437 L256.269531,64.9395313 L265.796484,33.6648437 C266.365914,32.1755655 266.858683,31.179078 267.274805,30.6753516 C267.800432,30.0402182 268.512209,29.7226562 269.410156,29.7226562 C270.308103,29.7226562 271.080107,30.0456934 271.726191,30.6917773 C272.372275,31.3378613 272.695312,32.1098653 272.695312,33.0078125 Z M292.40625,72.4296875 L292.40625,36.2929688 L282.550781,36.2929688 C281.652834,36.2929688 280.88083,35.9699316 280.234746,35.3238477 C279.588662,34.6777637 279.265625,33.9057597 279.265625,33.0078125 C279.265625,32.1098653 279.588662,31.3378613 280.234746,30.6917773 C280.88083,30.0456934 281.652834,29.7226562 282.550781,29.7226562 L308.832031,29.7226562 C309.729978,29.7226562 310.501982,30.0456934 311.148066,30.6917773 C311.79415,31.3378613 312.117188,32.1098653 312.117188,33.0078125 C312.117188,33.9057597 311.79415,34.6777637 311.148066,35.3238477 C310.501982,35.9699316 309.729978,36.2929688 308.832031,36.2929688 L298.976562,36.2929688 L298.976562,72.4296875 L308.832031,72.4296875 C309.729978,72.4296875 310.501982,72.7527246 311.148066,73.3988086 C311.79415,74.0448926 312.117188,74.8168966 312.117188,75.7148438 C312.117188,76.6127909 311.79415,77.3847949 311.148066,78.0308789 C310.501982,78.6769629 309.729978,79 308.832031,79 L282.550781,79 C281.652834,79 280.88083,78.6769629 280.234746,78.0308789 C279.588662,77.3847949 279.265625,76.6127909 279.265625,75.7148438 C279.265625,74.8168966 279.588662,74.0448926 280.234746,73.3988086 C280.88083,72.7527246 281.652834,72.4296875 282.550781,72.4296875 L292.40625,72.4296875 Z M351.539062,43.6845703 C351.539062,44.5825175 351.216025,45.3545215 350.569941,46.0006055 C349.923857,46.6466894 349.151853,46.9697266 348.253906,46.9697266 C347.355959,46.9697266 346.583955,46.6466894 345.937871,46.0006055 C345.291787,45.3545215 344.96875,44.5825175 344.96875,43.6845703 C344.96875,41.6477633 344.246023,39.9066479 342.800547,38.4611719 C341.355071,37.0156959 339.613955,36.2929688 337.577148,36.2929688 L332.649414,36.2929688 C330.612607,36.2929688 328.871492,37.0156959 327.426016,38.4611719 C325.98054,39.9066479 325.257812,41.6477633 325.257812,43.6845703 C325.257812,45.7213774 325.98054,47.4624928 327.426016,48.9079687 C328.871492,50.3534447 330.612607,51.0761719 332.649414,51.0761719 L337.577148,51.0761719 C341.431751,51.0761719 344.72235,52.4394981 347.449043,55.1661914 C350.175736,57.8928847 351.539062,61.1834833 351.539062,65.0380859 C351.539062,68.8926885 350.175736,72.1832871 347.449043,74.9099805 C344.72235,77.6366738 341.431751,79 337.577148,79 L332.649414,79 C328.794811,79 325.504213,77.6366738 322.77752,74.9099805 C320.050826,72.1832871 318.6875,68.8926885 318.6875,65.0380859 C318.6875,64.1401387 319.010537,63.3681347 319.656621,62.7220508 C320.302705,62.0759668 321.074709,61.7529297 321.972656,61.7529297 C322.870603,61.7529297 323.642607,62.0759668 324.288691,62.7220508 C324.934775,63.3681347 325.257812,64.1401387 325.257812,65.0380859 C325.257812,67.074893 325.98054,68.8160084 327.426016,70.2614844 C328.871492,71.7069604 330.612607,72.4296875 332.649414,72.4296875 L337.577148,72.4296875 C339.613955,72.4296875 341.355071,71.7069604 342.800547,70.2614844 C344.246023,68.8160084 344.96875,67.074893 344.96875,65.0380859 C344.96875,63.0012789 344.246023,61.2601635 342.800547,59.8146875 C341.355071,58.3692115 339.613955,57.6464844 337.577148,57.6464844 L332.649414,57.6464844 C328.794811,57.6464844 325.504213,56.2831582 322.77752,53.5564648 C320.050826,50.8297715 318.6875,47.5391729 318.6875,43.6845703 C318.6875,39.8299677 320.050826,36.5393691 322.77752,33.8126758 C325.504213,31.0859825 328.794811,29.7226562 332.649414,29.7226562 L337.577148,29.7226562 C341.431751,29.7226562 344.72235,31.0859825 347.449043,33.8126758 C350.175736,36.5393691 351.539062,39.8299677 351.539062,43.6845703 Z M377.820312,36.2929688 L377.820312,75.7148438 C377.820312,76.6127909 377.497275,77.3847949 376.851191,78.0308789 C376.205107,78.6769629 375.433103,79 374.535156,79 C373.637209,79 372.865205,78.6769629 372.219121,78.0308789 C371.573037,77.3847949 371.25,76.6127909 371.25,75.7148438 L371.25,36.2929688 L361.394531,36.2929688 C360.496584,36.2929688 359.72458,35.9699316 359.078496,35.3238477 C358.432412,34.6777637 358.109375,33.9057597 358.109375,33.0078125 C358.109375,32.1098653 358.432412,31.3378613 359.078496,30.6917773 C359.72458,30.0456934 360.496584,29.7226562 361.394531,29.7226562 L387.675781,29.7226562 C388.573728,29.7226562 389.345732,30.0456934 389.991816,30.6917773 C390.6379,31.3378613 390.960938,32.1098653 390.960938,33.0078125 C390.960938,33.9057597 390.6379,34.6777637 389.991816,35.3238477 C389.345732,35.9699316 388.573728,36.2929688 387.675781,36.2929688 L377.820312,36.2929688 Z" id="UTMIST" fill="#FFFFFF"></path>
    </g>
</svg>