<?xml version="1.0" encoding="UTF-8"?>
<svg width="237px" height="213px" viewBox="0 0 237 213" version="1.1" xmlns="http://www.w3.org/2000/svg" xmlns:xlink="http://www.w3.org/1999/xlink">
    <!-- Generator: Sketch 51.2 (57519) - http://www.bohemiancoding.com/sketch -->
    <title>Logo / White Bottom</title>
    <desc>Created with Sketch.</desc>
    <defs></defs>
    <g id="Logo-/-White-Bottom" stroke="none" stroke-width="1" fill="none" fill-rule="evenodd">
        <g id="Group" transform="translate(4.000000, 2.000000)">
            <g id="Group-8-Copy-2" transform="translate(41.000000, 0.000000)">
                <path d="M126.682,19.407 C127.305,18.783 128.166,18.397 129.116,18.397 C131.017,18.397 132.558,19.941 132.558,21.847 C132.558,23.751 131.017,25.296 129.116,25.296 C127.216,25.296 125.675,23.752 125.675,21.847 C125.675,20.894 126.06,20.03 126.682,19.407" id="Shape" stroke="#FFFFFF" stroke-width="2.9148"></path>
                <ellipse id="Oval" stroke="#FFFFFF" stroke-width="2.9148" cx="131.226" cy="75.608" rx="3.442" ry="3.45"></ellipse>
                <ellipse id="Oval" stroke="#FFFFFF" stroke-width="2.9148" cx="90.102" cy="117.224" rx="3.441" ry="3.45"></ellipse>
                <path d="M90.102,113.774 C88.572,95.695 68.151,91.166 46.2,91.166" id="Shape" stroke="#FFFFFF" stroke-width="4.8581"></path>
                <path d="M126.824,19.275 C112.336,6.1 87.836,2.806 66.778,3.464" id="Shape" stroke="#FFFFFF" stroke-width="4.8581"></path>
                <path d="M132.816,72.549 C140.843,57.784 141.176,38.87 131.212,24.572" id="Shape" stroke="#FFFFFF" stroke-width="4.8581"></path>
                <path d="M106.021,94.323 C115.682,91.632 123.529,85.802 129.117,78.329" id="Shape" stroke="#FFFFFF" stroke-width="4.8581"></path>
                <path d="M9.298,74.028 C17.176,83.709 30.215,90.589 47.751,91.166" id="Shape" stroke="#FFFFFF" stroke-width="4.8581"></path>
                <path d="M3.055,36.188 C-0.832,46.404 -0.131,57.471 4.706,66.982" id="Shape" stroke="#FFFFFF" stroke-width="4.8581"></path>
                <path d="M14.645,19.644 C11.534,22.426 8.954,25.455 6.89,28.643" id="Shape" stroke="#FFFFFF" stroke-width="4.8581"></path>
                <path d="M59.967,3.464 C43.625,4.41 30.859,8.544 21.419,14.54" id="Shape" stroke="#FFFFFF" stroke-width="4.8581"></path>
                <ellipse id="Oval" stroke="#FFFFFF" stroke-width="2.9148" cx="103.133" cy="95.695" rx="3.441" ry="3.448"></ellipse>
                <ellipse id="Oval" stroke="#FFFFFF" stroke-width="1.2631" cx="73.273" cy="61.035" rx="3.442" ry="3.45"></ellipse>
                <ellipse id="Oval" stroke="#FFFFFF" stroke-width="1.2631" cx="36.618" cy="42.804" rx="3.441" ry="3.449"></ellipse>
                <ellipse id="Oval" stroke="#FFFFFF" stroke-width="1.2631" cx="88.596" cy="41.043" rx="3.442" ry="3.451"></ellipse>
                <ellipse id="Oval" stroke="#FFFFFF" stroke-width="2.9148" cx="63.336" cy="3.464" rx="3.442" ry="3.449"></ellipse>
                <ellipse id="Oval" fill="#FFFFFF" fill-rule="nonzero" cx="117.568" cy="65.967" rx="3.442" ry="3.45"></ellipse>
                <ellipse id="Oval" fill="#FFFFFF" fill-rule="nonzero" cx="110.443" cy="25.295" rx="3.442" ry="3.449"></ellipse>
                <ellipse id="Oval" fill="#FFFFFF" fill-rule="nonzero" cx="65.517" cy="35.664" rx="3.442" ry="3.45"></ellipse>
                <path d="M63.336,6.913 L65.518,36.685" id="Shape" stroke="#FFFFFF" stroke-width="1.2631"></path>
                <path d="M65.518,36.685 L40.059,42.208" id="Shape" stroke="#FFFFFF" stroke-width="1.2631"></path>
                <path d="M66.781,35.664 L85.154,40.33" id="Shape" stroke="#FFFFFF" stroke-width="1.2631"></path>
                <path d="M92.038,39.57 L109.648,25.94" id="Shape" stroke="#FFFFFF" stroke-width="1.2631"></path>
                <path d="M109.648,25.94 L117.568,65.967" id="Shape" stroke="#FFFFFF" stroke-width="1.2631"></path>
                <path d="M111.675,25.94 L126.015,24.573" id="Shape" stroke="#FFFFFF" stroke-width="1.2631"></path>
                <path d="M91.552,43.895 L115.503,65.967" id="Shape" stroke="#FFFFFF" stroke-width="1.2631"></path>
                <path d="M115.503,65.967 L104.589,92.572" id="Shape" stroke="#FFFFFF" stroke-width="1.2631"></path>
                <path d="M118.845,65.967 L128.519,72.667" id="Shape" stroke="#FFFFFF" stroke-width="1.2631"></path>
                <path d="M75.838,58.74 L86.66,43.895" id="Shape" stroke="#FFFFFF" stroke-width="1.2631"></path>
                <path d="M87.623,38.581 L63.994,6.1" id="Shape" stroke="#FFFFFF" stroke-width="1.2631"></path>
                <path d="M66.778,6.1 L110.443,24.573" id="Shape" stroke="#FFFFFF" stroke-width="1.2631"></path>
                <path d="M88.596,44.494 L100.521,93.453" id="Shape" stroke="#FFFFFF" stroke-width="1.2631"></path>
                <path d="M76.715,62.517 L99.691,94.323" id="Shape" stroke="#FFFFFF" stroke-width="1.2631"></path>
                <path d="M74.833,64.485 L92.836,113.774" id="Shape" stroke="#FFFFFF" stroke-width="1.2631"></path>
                <path d="M70.325,59.261 L65.808,35.664" id="Shape" stroke="#FFFFFF" stroke-width="1.2631"></path>
                <path d="M39.616,44.494 L69.832,61.035" id="Shape" stroke="#FFFFFF" stroke-width="1.2631"></path>
                <path d="M37.806,39.57 L61.119,6.1" id="Shape" stroke="#FFFFFF" stroke-width="1.2631"></path>
                <path d="M127.784,24.573 L118.845,64.485" id="Shape" stroke="#FFFFFF" stroke-width="1.2631"></path>
                <path d="M34.222,40.33 L19.643,19.642" id="Shape" stroke="#FFFFFF" stroke-width="1.2631"></path>
                <ellipse id="Oval" stroke="#FFFFFF" stroke-width="2.9148" cx="17.833" cy="16.907" rx="3.442" ry="3.449"></ellipse>
                <path d="M8.272,33.5 L33.176,42.804" id="Shape" stroke="#FFFFFF" stroke-width="1.2631"></path>
                <path d="M34.222,44.494 L9.298,68.305" id="Shape" stroke="#FFFFFF" stroke-width="1.2631"></path>
                <ellipse id="Oval" stroke="#FFFFFF" stroke-width="2.9148" cx="4.831" cy="32.215" rx="3.442" ry="3.449"></ellipse>
                <ellipse id="Oval" stroke="#FFFFFF" stroke-width="2.9148" cx="6.837" cy="70.657" rx="3.442" ry="3.449"></ellipse>
            </g>
            <path d="M0,151.266667 C0,150.373773 0.323092007,149.606114 0.969285714,148.963667 C1.61547942,148.321219 2.38761456,148 3.28571429,148 C4.18381401,148 4.95594915,148.321219 5.60214286,148.963667 C6.24833656,149.606114 6.57142857,150.373773 6.57142857,151.266667 L6.57142857,180.666667 C6.57142857,183.367125 7.53522846,185.675546 9.46285714,187.592 C11.3904858,189.508454 13.7123674,190.466667 16.4285714,190.466667 C19.1447755,190.466667 21.466657,189.508454 23.3942857,187.592 C25.3219144,185.675546 26.2857143,183.367125 26.2857143,180.666667 L26.2857143,151.266667 C26.2857143,150.373773 26.6088063,149.606114 27.255,148.963667 C27.9011937,148.321219 28.6733288,148 29.5714286,148 C30.4695283,148 31.2416634,148.321219 31.8878571,148.963667 C32.5340508,149.606114 32.8571429,150.373773 32.8571429,151.266667 L32.8571429,180.666667 C32.8571429,185.174689 31.2526351,189.023873 28.0435714,192.214333 C24.8345078,195.404794 20.9628798,197 16.4285714,197 C11.894263,197 8.02263509,195.404794 4.81357143,192.214333 C1.60450776,189.023873 0,185.174689 0,180.666667 L0,151.266667 Z M59.1428571,154.533333 L59.1428571,193.733333 C59.1428571,194.626227 58.8197651,195.393886 58.1735714,196.036333 C57.5273777,196.678781 56.7552426,197 55.8571429,197 C54.9590431,197 54.186908,196.678781 53.5407143,196.036333 C52.8945206,195.393886 52.5714286,194.626227 52.5714286,193.733333 L52.5714286,154.533333 L42.7142857,154.533333 C41.816186,154.533333 41.0440508,154.212114 40.3978571,153.569667 C39.7516634,152.927219 39.4285714,152.15956 39.4285714,151.266667 C39.4285714,150.373773 39.7516634,149.606114 40.3978571,148.963667 C41.0440508,148.321219 41.816186,148 42.7142857,148 L69,148 C69.8980997,148 70.6702349,148.321219 71.3164286,148.963667 C71.9626223,149.606114 72.2857143,150.373773 72.2857143,151.266667 C72.2857143,152.15956 71.9626223,152.927219 71.3164286,153.569667 C70.6702349,154.212114 69.8980997,154.533333 69,154.533333 L59.1428571,154.533333 Z M111.714286,151.266667 L111.714286,193.733333 C111.714286,194.626227 111.391194,195.393886 110.745,196.036333 C110.098806,196.678781 109.326671,197 108.428571,197 C107.530472,197 106.758337,196.678781 106.112143,196.036333 C105.465949,195.393886 105.142857,194.626227 105.142857,193.733333 L105.142857,173.055333 L98.5714286,194.386667 L98.5057143,194.386667 C98.3961899,194.996447 98.1004786,195.540886 97.6185714,196.02 C96.9614253,196.673337 96.183814,197 95.2857143,197 C94.3876146,197 93.6209556,196.673337 92.9857143,196.02 C92.4819022,195.540886 92.1752386,194.996447 92.0657143,194.386667 L92,194.386667 L85.4285714,173.055333 L85.4285714,193.733333 C85.4285714,194.626227 85.1054794,195.393886 84.4592857,196.036333 C83.813092,196.678781 83.0409569,197 82.1428571,197 C81.2447574,197 80.4726223,196.678781 79.8264286,196.036333 C79.1802349,195.393886 78.8571429,194.626227 78.8571429,193.733333 L78.8571429,151.266667 C78.8571429,150.373773 79.185711,149.60067 79.8428571,148.947333 C80.4780984,148.315775 81.2447574,148 82.1428571,148 C83.0409569,148 83.8185681,148.315775 84.4757143,148.947333 C85.0452409,149.535336 85.4723795,150.526215 85.7571429,151.92 L95.2857143,183.018667 L104.814286,151.92 C105.383812,150.439104 105.876665,149.448225 106.292857,148.947333 C106.818574,148.315775 107.530472,148 108.428571,148 C109.326671,148 110.098806,148.321219 110.745,148.963667 C111.391194,149.606114 111.714286,150.373773 111.714286,151.266667 Z M131.428571,190.466667 L131.428571,154.533333 L121.571429,154.533333 C120.673329,154.533333 119.901194,154.212114 119.255,153.569667 C118.608806,152.927219 118.285714,152.15956 118.285714,151.266667 C118.285714,150.373773 118.608806,149.606114 119.255,148.963667 C119.901194,148.321219 120.673329,148 121.571429,148 L147.857143,148 C148.755243,148 149.527378,148.321219 150.173571,148.963667 C150.819765,149.606114 151.142857,150.373773 151.142857,151.266667 C151.142857,152.15956 150.819765,152.927219 150.173571,153.569667 C149.527378,154.212114 148.755243,154.533333 147.857143,154.533333 L138,154.533333 L138,190.466667 L147.857143,190.466667 C148.755243,190.466667 149.527378,190.787886 150.173571,191.430333 C150.819765,192.072781 151.142857,192.84044 151.142857,193.733333 C151.142857,194.626227 150.819765,195.393886 150.173571,196.036333 C149.527378,196.678781 148.755243,197 147.857143,197 L121.571429,197 C120.673329,197 119.901194,196.678781 119.255,196.036333 C118.608806,195.393886 118.285714,194.626227 118.285714,193.733333 C118.285714,192.84044 118.608806,192.072781 119.255,191.430333 C119.901194,190.787886 120.673329,190.466667 121.571429,190.466667 L131.428571,190.466667 Z M190.571429,161.883333 C190.571429,162.776227 190.248337,163.543886 189.602143,164.186333 C188.955949,164.828781 188.183814,165.15 187.285714,165.15 C186.387615,165.15 185.615479,164.828781 184.969286,164.186333 C184.323092,163.543886 184,162.776227 184,161.883333 C184,159.85799 183.27715,158.126674 181.831429,156.689333 C180.385707,155.251993 178.644296,154.533333 176.607143,154.533333 L171.678571,154.533333 C169.641418,154.533333 167.900007,155.251993 166.454286,156.689333 C165.008564,158.126674 164.285714,159.85799 164.285714,161.883333 C164.285714,163.908677 165.008564,165.639993 166.454286,167.077333 C167.900007,168.514674 169.641418,169.233333 171.678571,169.233333 L176.607143,169.233333 C180.4624,169.233333 183.753558,170.588986 186.480714,173.300333 C189.207871,176.01168 190.571429,179.283759 190.571429,183.116667 C190.571429,186.949575 189.207871,190.221653 186.480714,192.933 C183.753558,195.644347 180.4624,197 176.607143,197 L171.678571,197 C167.823314,197 164.532156,195.644347 161.805,192.933 C159.077844,190.221653 157.714286,186.949575 157.714286,183.116667 C157.714286,182.223773 158.037378,181.456114 158.683571,180.813667 C159.329765,180.171219 160.1019,179.85 161,179.85 C161.8981,179.85 162.670235,180.171219 163.316429,180.813667 C163.962622,181.456114 164.285714,182.223773 164.285714,183.116667 C164.285714,185.14201 165.008564,186.873326 166.454286,188.310667 C167.900007,189.748007 169.641418,190.466667 171.678571,190.466667 L176.607143,190.466667 C178.644296,190.466667 180.385707,189.748007 181.831429,188.310667 C183.27715,186.873326 184,185.14201 184,183.116667 C184,181.091323 183.27715,179.360007 181.831429,177.922667 C180.385707,176.485326 178.644296,175.766667 176.607143,175.766667 L171.678571,175.766667 C167.823314,175.766667 164.532156,174.411014 161.805,171.699667 C159.077844,168.98832 157.714286,165.716241 157.714286,161.883333 C157.714286,158.050425 159.077844,154.778347 161.805,152.067 C164.532156,149.355653 167.823314,148 171.678571,148 L176.607143,148 C180.4624,148 183.753558,149.355653 186.480714,152.067 C189.207871,154.778347 190.571429,158.050425 190.571429,161.883333 Z M216.857143,154.533333 L216.857143,193.733333 C216.857143,194.626227 216.534051,195.393886 215.887857,196.036333 C215.241663,196.678781 214.469528,197 213.571429,197 C212.673329,197 211.901194,196.678781 211.255,196.036333 C210.608806,195.393886 210.285714,194.626227 210.285714,193.733333 L210.285714,154.533333 L200.428571,154.533333 C199.530472,154.533333 198.758337,154.212114 198.112143,153.569667 C197.465949,152.927219 197.142857,152.15956 197.142857,151.266667 C197.142857,150.373773 197.465949,149.606114 198.112143,148.963667 C198.758337,148.321219 199.530472,148 200.428571,148 L226.714286,148 C227.612385,148 228.384521,148.321219 229.030714,148.963667 C229.676908,149.606114 230,150.373773 230,151.266667 C230,152.15956 229.676908,152.927219 229.030714,153.569667 C228.384521,154.212114 227.612385,154.533333 226.714286,154.533333 L216.857143,154.533333 Z" id="UTMIST" fill="#FFFFFF"></path>
        </g>
    </g>
</svg>