<?xml version="1.0" encoding="UTF-8"?>
<svg width="147px" height="127px" viewBox="0 0 147 127" version="1.1" xmlns="http://www.w3.org/2000/svg" xmlns:xlink="http://www.w3.org/1999/xlink">
    <!-- Generator: Sketch 51.2 (57519) - http://www.bohemiancoding.com/sketch -->
    <title>Logo / White Brain</title>
    <desc>Created with Sketch.</desc>
    <defs></defs>
    <g id="Logo-/-White-Brain" stroke="none" stroke-width="1" fill="none" fill-rule="evenodd">
        <g id="Group" transform="translate(3.000000, 2.000000)">
            <g id="Group-8-Copy-2">
                <path d="M126.682,19.407 C127.305,18.783 128.166,18.397 129.116,18.397 C131.017,18.397 132.558,19.941 132.558,21.847 C132.558,23.751 131.017,25.296 129.116,25.296 C127.216,25.296 125.675,23.752 125.675,21.847 C125.675,20.894 126.06,20.03 126.682,19.407" id="Shape" stroke="#FFFFFF" stroke-width="2.9148"></path>
                <ellipse id="Oval" stroke="#FFFFFF" stroke-width="2.9148" cx="131.226" cy="75.608" rx="3.442" ry="3.45"></ellipse>
                <ellipse id="Oval" stroke="#FFFFFF" stroke-width="2.9148" cx="90.102" cy="117.224" rx="3.441" ry="3.45"></ellipse>
                <path d="M90.102,113.774 C88.572,95.695 68.151,91.166 46.2,91.166" id="Shape" stroke="#FFFFFF" stroke-width="4.8581"></path>
                <path d="M126.824,19.275 C112.336,6.1 87.836,2.806 66.778,3.464" id="Shape" stroke="#FFFFFF" stroke-width="4.8581"></path>
                <path d="M132.816,72.549 C140.843,57.784 141.176,38.87 131.212,24.572" id="Shape" stroke="#FFFFFF" stroke-width="4.8581"></path>
                <path d="M106.021,94.323 C115.682,91.632 123.529,85.802 129.117,78.329" id="Shape" stroke="#FFFFFF" stroke-width="4.8581"></path>
                <path d="M9.298,74.028 C17.176,83.709 30.215,90.589 47.751,91.166" id="Shape" stroke="#FFFFFF" stroke-width="4.8581"></path>
                <path d="M3.055,36.188 C-0.832,46.404 -0.131,57.471 4.706,66.982" id="Shape" stroke="#FFFFFF" stroke-width="4.8581"></path>
                <path d="M14.645,19.644 C11.534,22.426 8.954,25.455 6.89,28.643" id="Shape" stroke="#FFFFFF" stroke-width="4.8581"></path>
                <path d="M59.967,3.464 C43.625,4.41 30.859,8.544 21.419,14.54" id="Shape" stroke="#FFFFFF" stroke-width="4.8581"></path>
                <ellipse id="Oval" stroke="#FFFFFF" stroke-width="2.9148" cx="103.133" cy="95.695" rx="3.441" ry="3.448"></ellipse>
                <ellipse id="Oval" stroke="#FFFFFF" stroke-width="1.2631" cx="73.273" cy="61.035" rx="3.442" ry="3.45"></ellipse>
                <ellipse id="Oval" stroke="#FFFFFF" stroke-width="1.2631" cx="36.618" cy="42.804" rx="3.441" ry="3.449"></ellipse>
                <ellipse id="Oval" stroke="#FFFFFF" stroke-width="1.2631" cx="88.596" cy="41.043" rx="3.442" ry="3.451"></ellipse>
                <ellipse id="Oval" stroke="#FFFFFF" stroke-width="2.9148" cx="63.336" cy="3.464" rx="3.442" ry="3.449"></ellipse>
                <ellipse id="Oval" fill="#FFFFFF" fill-rule="nonzero" cx="117.568" cy="65.967" rx="3.442" ry="3.45"></ellipse>
                <ellipse id="Oval" fill="#FFFFFF" fill-rule="nonzero" cx="110.443" cy="25.295" rx="3.442" ry="3.449"></ellipse>
                <ellipse id="Oval" fill="#FFFFFF" fill-rule="nonzero" cx="65.517" cy="35.664" rx="3.442" ry="3.45"></ellipse>
                <path d="M63.336,6.913 L65.518,36.685" id="Shape" stroke="#FFFFFF" stroke-width="1.2631"></path>
                <path d="M65.518,36.685 L40.059,42.208" id="Shape" stroke="#FFFFFF" stroke-width="1.2631"></path>
                <path d="M66.781,35.664 L85.154,40.33" id="Shape" stroke="#FFFFFF" stroke-width="1.2631"></path>
                <path d="M92.038,39.57 L109.648,25.94" id="Shape" stroke="#FFFFFF" stroke-width="1.2631"></path>
                <path d="M109.648,25.94 L117.568,65.967" id="Shape" stroke="#FFFFFF" stroke-width="1.2631"></path>
                <path d="M111.675,25.94 L126.015,24.573" id="Shape" stroke="#FFFFFF" stroke-width="1.2631"></path>
                <path d="M91.552,43.895 L115.503,65.967" id="Shape" stroke="#FFFFFF" stroke-width="1.2631"></path>
                <path d="M115.503,65.967 L104.589,92.572" id="Shape" stroke="#FFFFFF" stroke-width="1.2631"></path>
                <path d="M118.845,65.967 L128.519,72.667" id="Shape" stroke="#FFFFFF" stroke-width="1.2631"></path>
                <path d="M75.838,58.74 L86.66,43.895" id="Shape" stroke="#FFFFFF" stroke-width="1.2631"></path>
                <path d="M87.623,38.581 L63.994,6.1" id="Shape" stroke="#FFFFFF" stroke-width="1.2631"></path>
                <path d="M66.778,6.1 L110.443,24.573" id="Shape" stroke="#FFFFFF" stroke-width="1.2631"></path>
                <path d="M88.596,44.494 L100.521,93.453" id="Shape" stroke="#FFFFFF" stroke-width="1.2631"></path>
                <path d="M76.715,62.517 L99.691,94.323" id="Shape" stroke="#FFFFFF" stroke-width="1.2631"></path>
                <path d="M74.833,64.485 L92.836,113.774" id="Shape" stroke="#FFFFFF" stroke-width="1.2631"></path>
                <path d="M70.325,59.261 L65.808,35.664" id="Shape" stroke="#FFFFFF" stroke-width="1.2631"></path>
                <path d="M39.616,44.494 L69.832,61.035" id="Shape" stroke="#FFFFFF" stroke-width="1.2631"></path>
                <path d="M37.806,39.57 L61.119,6.1" id="Shape" stroke="#FFFFFF" stroke-width="1.2631"></path>
                <path d="M127.784,24.573 L118.845,64.485" id="Shape" stroke="#FFFFFF" stroke-width="1.2631"></path>
                <path d="M34.222,40.33 L19.643,19.642" id="Shape" stroke="#FFFFFF" stroke-width="1.2631"></path>
                <ellipse id="Oval" stroke="#FFFFFF" stroke-width="2.9148" cx="17.833" cy="16.907" rx="3.442" ry="3.449"></ellipse>
                <path d="M8.272,33.5 L33.176,42.804" id="Shape" stroke="#FFFFFF" stroke-width="1.2631"></path>
                <path d="M34.222,44.494 L9.298,68.305" id="Shape" stroke="#FFFFFF" stroke-width="1.2631"></path>
                <ellipse id="Oval" stroke="#FFFFFF" stroke-width="2.9148" cx="4.831" cy="32.215" rx="3.442" ry="3.449"></ellipse>
                <ellipse id="Oval" stroke="#FFFFFF" stroke-width="2.9148" cx="6.837" cy="70.657" rx="3.442" ry="3.449"></ellipse>
            </g>
        </g>
    </g>
</svg>